# xmcd
#
# Track frame offsets: 
#        150
#        11228
#        22593
#        36110
#        43592
#        50873
#        61343
#        68517
#        75913
#        86321
#        97518
#        107976
#        116740
#        128907
#        136065
#        146136
#        153177
#        169609
#        179897
#        187298
#
# Disc length: 2592 seconds
#
# Revision: 0
# Processed by: cddbd v1.5.2PL0 Copyright (c) Steve Scherf et al.
# Submitted via: ExactAudioCopy v0.95b4
#
DISCID=070a1e14
DTITLE=20 Greatest Hits - Yardbirds
DYEAR=1900
DGENRE=Blues
TTITLE0=For your love
TTITLE1=I'm a man
TTITLE2=Pretty girl
TTITLE3=Five long years
TTITLE4=Jeff's blues
TTITLE5=Shapes of things
TTITLE6=Steeled blues
TTITLE7=The train kept a rolling
TTITLE8=Boom boom
TTITLE9=Got love if you want it
TTITLE10=Evil hearted you
TTITLE11=I ain't got you
TTITLE12=Good morning little schoolgirl
TTITLE13=My girl Sloopy
TTITLE14=A certain girl
TTITLE15=Here't is
TTITLE16=Too much monkey business
TTITLE17=Got to hurry
TTITLE18=Still I'm sad
TTITLE19=New York city blues
EXTD=
EXTT0=
EXTT1=
EXTT2=
EXTT3=
EXTT4=
EXTT5=
EXTT6=
EXTT7=
EXTT8=
EXTT9=
EXTT10=
EXTT11=
EXTT12=
EXTT13=
EXTT14=
EXTT15=
EXTT16=
EXTT17=
EXTT18=
EXTT19=
PLAYORDER=
